<?xml version="1.0" standalone="no"?>
<!DOCTYPE svg PUBLIC "-//W3C//DTD SVG 20010904//EN"
 "http://www.w3.org/TR/2001/REC-SVG-20010904/DTD/svg10.dtd">
<svg version="1.0" xmlns="http://www.w3.org/2000/svg"
 width="192.000000pt" height="192.000000pt" viewBox="0 0 192.000000 192.000000"
 preserveAspectRatio="xMidYMid meet">

<g transform="translate(0.000000,192.000000) scale(0.100000,-0.100000)"
fill="#000000" stroke="none">
<path d="M0 960 l0 -960 960 0 960 0 0 960 0 960 -960 0 -960 0 0 -960z m1658
858 c11 -14 -20 -286 -38 -325 l-10 -23 -319 0 c-204 0 -322 4 -326 10 -8 13
33 307 46 332 9 17 29 18 323 18 239 0 316 -3 324 -12z m-764 -36 c3 -5 -6
-82 -19 -173 -14 -90 -34 -228 -46 -307 -11 -79 -18 -149 -15 -157 4 -11 35
-15 142 -17 94 -2 139 -7 141 -15 4 -10 -40 -49 -300 -262 l-98 -81 -159 0
c-119 0 -159 3 -163 13 -2 7 -1 37 4 67 4 30 24 161 44 290 20 129 39 255 43
280 7 44 11 48 207 207 109 90 202 163 206 163 5 0 10 -4 13 -8z m653 -668 c3
-9 1 -53 -6 -98 -25 -168 -82 -542 -86 -561 -5 -26 -401 -349 -416 -339 -12 7
-10 28 31 294 52 338 89 584 96 635 12 89 2 85 200 85 152 0 175 -2 181 -16z
m-581 -695 c6 -11 -10 -155 -30 -264 l-11 -60 -323 -3 c-284 -2 -323 0 -328
13 -8 20 35 296 48 313 14 16 633 18 644 1z"/>
</g>
</svg>
